<?xml version="1.0" encoding="UTF-8" standalone="no"?>
<!DOCTYPE svg PUBLIC "-//W3C//DTD SVG 1.1//EN" "http://www.w3.org/Graphics/SVG/1.1/DTD/svg11.dtd">
<svg width="100%" height="100%" viewBox="0 0 260 337" version="1.1" xmlns="http://www.w3.org/2000/svg" xmlns:xlink="http://www.w3.org/1999/xlink" xml:space="preserve" xmlns:serif="http://www.serif.com/" style="fill-rule:evenodd;clip-rule:evenodd;stroke-linejoin:round;stroke-miterlimit:2;">
    <g transform="matrix(1,0,0,1,-100.598,-91.4754)">
        <g transform="matrix(1,0,0,-1,0,516.84)">
            <path d="M360.441,207.692C343.125,208.672 326.535,212.942 309.219,216.375C324.969,197.113 336.66,175.875 347.934,154.387C347.648,153.996 347.371,153.637 347.086,153.27C329.086,163.59 311.086,173.91 292.41,184.629C294.75,170.953 296.91,157.957 299.16,144.879C301.051,134.016 303.008,123.129 304.957,112.305C305.039,111.86 305.094,111.406 305.121,110.953C305.012,108.981 306.301,106.336 303.48,105.442C301.004,104.602 300.227,107.137 299.211,108.711C290.961,121.543 283.059,134.61 273.57,146.602C268.32,153.246 262.957,159.781 255.996,164.797C253.359,166.719 252.121,166.442 251.039,163.176C243.758,142.32 239.109,120.727 234.18,99.254C233.559,96.606 232.875,94.004 232.027,91.379C231.637,90.141 231.066,88.516 229.441,88.629C227.812,88.738 227.25,90.211 227.023,91.559C225.742,98.535 224.52,105.512 223.273,112.559C220.32,128.934 216.129,144.969 209.852,160.449C208.281,164.324 206.852,163.883 204.172,161.949C193.027,153.809 184.672,143.024 176.625,132.016C170.984,124.313 165.855,116.34 160.949,108.188C160.328,107.235 160.043,105.434 158.699,105.719C156.906,106.059 157.523,107.969 157.582,109.207C158.281,123.27 160.836,137.152 162.938,151.043C164.438,161.168 166.289,171.293 168.047,182.024C156.047,174.172 143.781,167.774 131.398,161.668C126.277,159.141 121.156,156.621 115.922,154.266C114.684,153.703 113.16,151.914 111.93,153.203C110.578,154.703 112.215,156.352 113.004,157.703C117.285,164.617 121.574,171.586 126.195,178.328C134.543,190.442 143.332,202.442 151.344,215.528C134.406,211.957 117.863,208.942 101.047,208.074C100.875,208.535 100.723,209.004 100.598,209.481C122.496,220.918 144.391,232.41 166.598,244.02C157.449,252.809 148.598,261.426 140.766,271.02C136.441,276.449 132.434,282.125 128.766,288.024C118.336,304.297 118.695,321.113 125.977,338.274C131.977,352.328 140.641,364.629 150.504,376.199C151.914,377.828 152.754,379.199 152.422,381.711C150.594,395.102 154.605,406.567 165.922,414.195C177.742,422.168 190.793,424.231 204.059,417.285C206.754,415.875 208.328,415.926 210.699,417.613C222.855,426.481 235.516,426.914 248.324,419.07C250.066,418.004 251.191,417.887 253.051,419.121C266.227,428.324 279.668,426.621 292.531,418.778C303.488,412.125 308.863,397.266 305.918,383.152C305.219,380.418 305.859,377.512 307.648,375.328C317.527,362.16 326.281,348.246 332.836,333C338.773,319.156 338.527,305.82 330.691,292.672C321.242,276.809 309.797,262.223 296.641,249.27C295.68,248.317 294.781,247.356 293.879,246.352C317.574,236.016 338.871,221.699 360.441,207.692Z" style="fill:rgb(3,3,3);fill-rule:nonzero;"/>
        </g>
        <g transform="matrix(1,0,0,-1,0,396.293)">
            <path d="M153.285,255.504C158.387,246.047 158.672,245.422 168.742,249.621C186.137,256.852 200.102,268.703 211.371,283.754C214.371,287.797 212.453,290.731 209.363,293.43C220.68,303.594 234.863,304.867 247.051,297.031C248.234,296.281 249.637,295.844 248.062,294.156C245.301,291.242 246.473,288.367 248.211,285.496C251.578,280.094 255.723,275.215 260.512,271.02C270.172,262.231 280.223,254.004 293.102,250.277C300.855,248.027 301.027,248.063 304.582,256.051C306.773,253.004 308.789,250.305 310.754,247.547C318.945,235.719 326.469,223.5 331.844,210.047C336.719,197.777 336.586,185.91 329.707,174.332C308.609,138.766 280.559,110.969 241.559,95.281C232.664,91.695 224.062,91.426 215.176,95.215C178.867,110.68 151.523,136.465 130.199,169.082C121.051,183.098 120.742,198.008 126.328,213.406C131.016,226.231 143.984,246.52 153.285,255.504Z" style="fill:rgb(143,168,62);fill-rule:nonzero;"/>
        </g>
        <g transform="matrix(1,0,0,-1,0,697.954)">
            <path d="M107.297,391.931C115.547,396.251 123.047,400.286 130.598,404.216C141.848,410.044 153.098,415.817 164.348,421.766C166.547,422.942 167.672,423.333 168.227,420.266C169.23,414.919 170.91,409.684 171.691,404.345C172.02,401.341 173.668,398.638 176.191,396.97C190.891,386.118 206.766,377.556 225.441,377.556C246.781,377.509 267.523,384.606 284.363,397.716C286.547,399.341 287.957,401.802 288.254,404.509C289.164,410.298 290.684,416.036 291.879,421.825C292.5,425.036 293.91,425.477 296.887,424.181C304.715,420.618 312.332,416.61 319.703,412.181C331.223,405.431 342.691,398.477 353.863,390.583C344.25,392.458 334.637,394.27 325.02,396.2C319.566,397.278 314.113,398.524 308.602,399.708C307.59,399.942 306.473,400.841 305.676,399.778C304.883,398.712 306.18,397.915 306.801,397.13C321.961,379.61 332.836,359.345 343.941,339.138C342.441,338.388 341.691,339.7 340.793,340.212C325.621,348.895 310.449,357.692 295.223,366.325C293.871,367.075 292.469,369.087 290.949,367.825C289.656,366.763 290.609,364.626 290.887,363.048C293.949,345.153 297.129,327.317 300.082,309.431C301.191,302.622 302.984,295.931 303.367,288.505C301.117,289.52 300.504,291.317 299.617,292.782C290.754,306.86 281.895,320.938 271.223,333.778C266.789,339.126 262.074,344.278 256.176,348.138C252.863,350.282 251.004,349.833 249.531,345.845C242.863,327.462 238.734,308.403 234.148,289.458C232.785,283.833 231.488,278.157 230.184,272.477C229.785,272.477 229.395,272.532 228.945,272.54C227.324,281.313 225.824,290.142 224.152,298.923C221.328,314.403 216.848,329.532 210.781,344.052C209.152,347.938 207.578,347.802 204.539,345.806C195.473,339.747 188.379,331.716 181.664,323.306C173.773,313.423 166.785,302.86 159.797,292.181C159.922,301.52 161.398,310.63 162.797,319.798C165.047,334.302 167.512,348.755 169.836,363.208C170.012,364.22 170.746,365.345 169.68,366.13C168.496,366.977 167.766,365.63 167.031,365.118C150.645,353.95 132.637,345.829 113.836,336.52C115.078,338.77 115.809,340.063 116.602,341.352C127.312,359.11 140.219,375.403 151.215,392.931C151.812,393.798 152.359,394.696 152.852,395.63C153.359,396.642 154.824,397.54 154.035,398.778C153.141,400.181 151.785,398.95 150.719,398.665C137.047,395.376 123.098,393.536 109.141,391.595C108.516,391.649 107.898,391.763 107.297,391.931Z" style="fill:rgb(214,214,46);fill-rule:nonzero;"/>
        </g>
        <g transform="matrix(1,0,0,-1,0,596.2)">
            <path d="M169.492,320.958C182.223,310.341 196.297,301.45 211.352,294.512C222.703,289.321 233.504,289.262 244.926,294.348C261.367,301.63 276.562,310.669 290.676,323.184C288.699,315.259 287.004,308.231 285.922,301.028C285.578,298.954 283.672,297.888 282.172,296.649C270.855,287.559 257.461,283.024 243.621,279.559C217.629,273.016 195.93,282.61 175.824,297.888C174.777,298.552 174.098,299.657 173.969,300.888C173.129,307.302 171.449,313.587 169.492,320.958Z" style="fill:rgb(143,168,62);fill-rule:nonzero;"/>
        </g>
        <g transform="matrix(1,0,0,-1,0,237.536)">
            <path d="M304.777,113.598C304.895,107.634 303.953,101.692 301.996,96.056C300.75,92.306 298.613,91.727 295.125,92.638C284.16,95.524 275.398,102.177 266.859,109.138C260.812,113.931 255.48,119.567 251.023,125.868C247.043,131.606 247.215,133.016 252.898,137.337C264.148,145.809 276.195,145.587 288.277,139.645C299.969,133.888 304.395,123.61 304.777,113.598Z" style="fill:white;fill-rule:nonzero;"/>
        </g>
        <g transform="matrix(1,0,0,-1,0,243.246)">
            <path d="M153.922,114.769C154.559,126.187 159.75,136.191 171.398,141.629C183.613,147.344 195.93,148.004 207.398,139.379C212.004,135.883 212.34,134.699 208.68,130.207C196.785,115.605 182.934,103.418 164.754,97.144C159.301,95.242 158.512,95.812 156.324,101.16C154.695,105.148 154.027,109.312 153.922,114.769Z" style="fill:white;fill-rule:nonzero;"/>
        </g>
        <g transform="matrix(1,0,0,-1,0,481.961)">
            <path d="M134.852,278.09C136.59,277.863 137.102,277.977 137.379,277.75C142.629,273.02 148.508,273.063 154.809,275.02C174.309,281.125 194.086,285.926 213.719,291.356C229.027,295.547 243.594,293.5 258.324,289.145C271.824,285.133 284.852,279.934 297.953,274.895C305.453,272.012 312.734,268.625 319.836,277.895C318.473,272.645 314.871,269.973 310.262,269.645C307.559,269.477 304.074,270.324 302.387,268.984C300.699,267.641 300.742,263.981 299.844,261.484C288.391,229.813 266.684,207.184 237.691,190.914C229.641,186.414 221.766,187.512 213.961,191.742C196.262,201.313 182.781,215.563 171.328,231.746C163.41,243.012 156.789,255.137 151.59,267.887C150.523,270.477 149.461,271.992 146.199,272C141.871,271.953 138.27,273.813 134.852,278.09Z" style="fill:rgb(4,4,4);fill-rule:nonzero;"/>
        </g>
        <g transform="matrix(1,0,0,-1,0,235.844)">
            <path d="M269.984,129.196C273.531,128.071 277.359,128.285 281.406,129.465C285.457,130.641 290.062,126.973 290.113,122.922C290.113,119.266 291.512,116.285 292.738,113.078C293.457,111.406 293.816,109.606 293.797,107.789C293.77,106.871 293.227,106.043 292.395,105.653C291.434,105.203 290.648,105.875 290.031,106.61C289.605,107.227 289.215,107.867 288.855,108.524C287.227,111.571 286.785,115.508 281.152,113.774C278.004,112.77 274.914,115.867 274.922,119.414C274.922,122.731 273.238,123.125 270.879,123.41C270.262,123.473 269.641,123.524 269.078,123.637C267.164,124.145 264.75,124.606 264.922,127.02C265.094,129.637 267.684,128.953 269.984,129.196Z" style="fill:rgb(2,2,2);fill-rule:nonzero;"/>
        </g>
        <g transform="matrix(1,0,0,-1,0,241.574)">
            <path d="M176.984,116.324C173.781,117.961 173.984,114.98 173.16,113.234C172.141,111.105 172.359,106.828 169.266,107.676C165.668,108.636 167.477,112.515 168.047,115.101C168.719,118.191 169.547,121.101 169.289,124.379C168.961,129.043 173.078,133.207 177.691,132.187C181.566,131.277 184.656,132.398 188.094,133.347C190.117,133.902 192.703,134.746 193.656,132.215C194.609,129.515 191.859,128.676 189.906,128.062C186.816,127.109 184.508,126.496 184.656,122.062C184.695,118.168 181.141,116.265 176.984,116.324Z" style="fill:rgb(2,2,2);fill-rule:nonzero;"/>
        </g>
        <g transform="matrix(1,0,0,-1,0,503.692)">
            <path d="M251.094,292.329L300.023,292.251C297.953,282.372 294.215,272.915 288.961,264.294C276.961,244.118 260.461,228.508 240.512,216.337C230.762,210.391 221.715,210.63 212.109,216.493C191.43,229.126 176.438,247.036 164.379,267.637C159.531,275.837 155.367,284.419 151.934,293.301L167.289,293.301C171.621,292.34 175.949,293.176 180.285,293.001C187.363,292.708 194.398,293.204 201.488,292.739C202.492,291.563 201.594,290.829 200.805,290.161C199.609,289.254 198.359,288.426 197.055,287.684C188.055,281.684 186.457,272.969 193.191,264.434C201.891,253.454 213.586,247.583 227.477,246.555C234.504,246.036 240.75,249.118 246.555,252.766C252.359,256.411 257.984,260.055 261.93,265.844C267.676,274.387 265.734,286.364 254.031,289.844C252.832,290.13 250.891,290.024 251.094,292.329Z" style="fill:rgb(1,1,1);fill-rule:nonzero;"/>
        </g>
        <g transform="matrix(1,0,0,-1,0,400.051)">
            <path d="M238.141,194.949C238.09,193.383 237.047,192.028 235.547,191.582C231.32,190.324 226.836,190.211 222.555,191.258C220.078,191.879 219.066,193.239 220.926,195.481C223.637,198.797 221.047,198.856 218.797,198.977C210.246,199.27 202.484,196.473 195.113,192.539C193.039,191.36 190.688,190.746 188.301,190.754C178.344,190.883 168.391,190.84 158.379,190.86C158.324,191.313 158.266,191.762 158.211,192.211L172.395,196.403C187.582,200.821 203.004,204.653 218.363,208.539C229.508,211.328 240.188,209.903 250.98,207.25C268.02,203.055 284.039,195.946 300.898,189.953C299.664,188.723 298.477,189.449 297.465,189.457C291.398,189.457 285.375,189.699 279.301,189.594C271.051,189.442 262.988,189.399 255.516,194.356C250.914,197.461 245.062,197.918 239.438,198.324C238.426,198.375 237.074,198.946 236.574,197.762C236.062,196.418 237.188,195.571 238.141,194.949Z" style="fill:rgb(1,1,1);fill-rule:nonzero;"/>
        </g>
        <g transform="matrix(1,0,0,-1,0,470.961)">
            <path d="M251.094,259.598C251.656,258.473 252.832,258.473 253.793,258.188C265.426,254.789 269.797,243.652 263.543,233.258C261.711,230.297 259.359,227.691 256.605,225.563C249.906,220.313 243.039,215.121 234.594,213.5C219.18,210.598 206.648,216.922 195.699,227.121C195.023,227.734 194.461,228.41 193.844,229.086C184.41,239.902 186.621,251.09 199.453,257.539L201.879,258.719C207.828,260.363 214.133,260.195 219.988,258.238C223.738,256.992 227.184,256.598 230.953,258C234.328,259.281 238.094,258.66 241.59,259.5C244.738,259.551 247.891,259.543 251.094,259.598Z" style="fill:rgb(9,7,7);fill-rule:nonzero;"/>
        </g>
        <g transform="matrix(1,0,0,-1,0,425.785)">
            <path d="M241.59,214.375C236.691,212.531 231.344,212.312 226.508,210.242C225.645,210.008 224.727,210.086 223.922,210.469C216.891,213.746 209.414,214.039 201.879,213.594C200.586,215.094 198.789,214.555 197.211,214.504C187.988,214.238 178.711,215.379 169.461,213.933C168.449,213.762 167.836,214.496 167.387,215.344L209.797,215.344C215.586,214.324 221.496,215.777 227.289,214.637C232.027,214.562 236.805,214.496 241.59,214.375Z" style="fill:rgb(1,1,1);fill-rule:nonzero;"/>
        </g>
        <g transform="matrix(1,0,0,-1,0,413.797)">
            <path d="M227.242,202.633C221.391,202.762 215.543,201.809 209.754,203.34L216.727,203.668L216.727,204.508C210.727,204.856 204.727,205.149 197.773,205.5C203.633,209.195 209.371,210.426 215.168,211.543C217.582,211.988 219.219,211.485 218.762,208.336C218.25,204.961 220.051,203.375 223.426,203.375C224.715,203.43 226.141,203.766 227.242,202.633Z" style="fill:rgb(1,1,1);fill-rule:nonzero;"/>
        </g>
        <g transform="matrix(1,0,0,-1,0,413.656)">
            <path d="M238.141,208.5C238.254,210.863 240.504,210.578 241.516,210.406C247.141,209.328 252.879,208.472 258.609,205.09C251.797,202.793 245.559,203.258 239.309,203.32C237.57,203.32 236.953,204.277 238.359,205.515C239.941,206.804 239.543,207.652 238.141,208.515L238.141,208.5Z" style="fill:rgb(1,1,1);fill-rule:nonzero;"/>
        </g>
        <g transform="matrix(1,0,0,-1,0,476.383)">
            <path d="M228.164,242.84C227.773,247.168 227.559,251.555 226.891,255.832C226.5,258.305 227.297,259.207 229.598,259.992C236.047,262.207 242.883,263.078 249.684,262.543C255.809,261.973 260.934,259.828 263.391,253.805C265.871,248.18 264.605,241.606 260.211,237.305C240.609,216.922 220.746,213.305 197.887,232.852C196.555,234.09 195.316,235.426 194.184,236.848C190.539,241.414 188.012,246.477 190.727,252.321C193.727,258.672 198.977,262.207 206.039,262.699C207.406,262.793 208.777,262.774 210.141,262.641C222.797,261.719 225.098,259.469 226.262,246.891C226.484,245.481 226.426,243.965 228.164,242.84Z" style="fill:rgb(206,147,146);fill-rule:nonzero;"/>
        </g>
    </g>
</svg>
